M48
INCH
T01C0.0191
T02C0.0276
T03C0.028
T04C0.0295
T05C0.0354
T06C0.038
T07C0.0394
T08C0.0433
T09C0.0591
T10C0.0728
T11C0.0811
T12C0.0827
T13C0.0965
T14C0.0984
T15C0.116
T16C0.1299
%
T01
X+025397Y+023707
X+027367Y+024091
X+028013Y+024838
X+026972Y+025823
X+025565Y+026217
X+024348Y+027989
X+024174Y+028567
X+024763Y+029908
X+025565Y+030698
X+026013Y+032294
X+026013Y+028723
X+028502Y+026217
X+030002Y+025695
X+030502Y+026070
X+029502Y+024154
X+029607Y+023503
X+028408Y+019747
X+025397Y+019747
X+024348Y+020142
X+023558Y+020537
X+022903Y+021846
X+023558Y+017425
X+022903Y+016895
X+020149Y+015345
X+019229Y+014678
X+020938Y+013583
X+023953Y+012719
X+026972Y+015345
X+032565Y+012719
X+028013Y+008325
X+017375Y+006970
X+015913Y+015740
X+016315Y+017425
X+014351Y+016895
X+012910Y+018484
X+012106Y+017954
X+011190Y+017940
X+011190Y+016940
X+007899Y+017212
X+005950Y+017815
X+006345Y+018879
X+007064Y+020210
X+006669Y+021523
X+010267Y+024345
X+011515Y+023815
X+010940Y+026190
X+011515Y+027136
X+012063Y+028688
X+012910Y+029285
X+013440Y+028911
X+013861Y+026675
X+014351Y+024815
X+015400Y+025210
X+016530Y+026371
X+017375Y+027556
X+017770Y+027951
X+017770Y+027161
X+018165Y+026371
X+018834Y+026371
X+019364Y+026730
X+020149Y+025817
X+020938Y+026415
X+020678Y+027045
X+020678Y+027595
X+021075Y+029118
X+021075Y+030168
X+020065Y+030859
X+018754Y+031254
X+018204Y+030859
X+016764Y+030859
X+016234Y+030859
X+015315Y+031649
X+016565Y+032044
X+018063Y+032690
X+017555Y+036055
X+016980Y+028779
X+016190Y+028606
X+016190Y+027816
X+018519Y+028779
X+018779Y+027989
X+022028Y+026565
X+016315Y+022392
X+015795Y+023182
X+013956Y+023182
X+009690Y+025940
X+008063Y+026005
X+008063Y+029218
X+009690Y+029690
X+018834Y+018349
X+010440Y+013440
X+033760Y+026070
T02
X+012065Y+034315
X+011750Y+034787
X+011435Y+034315
X+011120Y+034787
X+010805Y+034315
X+009998Y+036067G85X+009998Y+036539
X+012872Y+036067G85X+012872Y+036539
T03
X+010315Y+006315
X+010315Y+005315
T04
X+021065Y+009815
X+021852Y+009815
X+022640Y+009815
X+023427Y+009815
X+024215Y+009815
X+025002Y+009815
X+025789Y+009815
X+026577Y+009815
T05
X+005065Y+020815
X+005065Y+019815
X+005065Y+018815
X+005065Y+017815
X+005065Y+016815
X+015065Y+035565
X+016065Y+035565
X+017065Y+035565
X+018065Y+035565
X+019065Y+035565
X+020065Y+035565
T06
X+044065Y+015815
X+044065Y+017815
X+044065Y+019815
X+044065Y+021815
X+044065Y+023815
X+044065Y+025815
X+044065Y+027815
X+039065Y+027815
X+037565Y+028565
X+037565Y+026565
X+039065Y+025815
X+037565Y+024565
X+039065Y+023815
X+039065Y+021815
X+039065Y+019815
X+039065Y+017815
X+039065Y+015815
X+032565Y+024565
X+032565Y+026565
X+032565Y+028565
T07
X+040565Y+008815
X+041549Y+008815
X+042534Y+008815
X+041874Y+006815
X+041874Y+005043
X+039315Y+005043
X+039315Y+006815
X+035124Y+007315
X+035124Y+005543
X+032565Y+005543
X+031124Y+005543
X+031124Y+007315
X+032565Y+007315
X+028565Y+007315
X+027124Y+007315
X+027124Y+005543
X+028565Y+005543
X+024565Y+005543
X+023124Y+005543
X+023124Y+007315
X+024565Y+007315
X+020565Y+007315
X+019124Y+007315
X+019124Y+005543
X+020565Y+005543
X+016565Y+005543
X+015124Y+005543
X+015124Y+007315
X+016565Y+007315
X+012565Y+007315
X+012565Y+005543
T08
X+043315Y+033065
X+043315Y+031096
X+033065Y+034377
X+032065Y+034377
X+031065Y+034377
T09
X+008644Y+017846
X+008644Y+016665
X+008644Y+015484
X+008644Y+014303
T10
X+007565Y+007815
X+007565Y+009665
X+007565Y+011516
T11
X+005065Y+030565
X+005065Y+025565
T12
X+038951Y+011768
X+044148Y+011768
T13
X+037065Y+035815
X+027065Y+035815
T14
X+011026Y+021311
X+011026Y+008280
X+036616Y+008280
X+036616Y+021311
T15
X+005565Y+035565
X+005565Y+005815
X+043565Y+005815
X+043565Y+035565
T16
X+022317Y+032441
X+022317Y+023689
X+008565Y+023689
X+008565Y+032440
T00
M30
