G04 DipTrace 2.3.1.0*
%INcurrent-drain.gbs*%
%MOIN*%
%ADD16C,0.0787*%
%ADD32R,0.0748X0.0748*%
%ADD33C,0.0748*%
%ADD39R,0.0669X0.0669*%
%ADD40C,0.0669*%
%ADD52C,0.1299*%
%ADD53C,0.116*%
%ADD54C,0.0984*%
%ADD57C,0.0965*%
%ADD83C,0.128*%
%ADD86C,0.13*%
%ADD88R,0.13X0.13*%
%ADD90C,0.068*%
%ADD92C,0.068*%
%ADD94C,0.0828*%
%ADD95R,0.0828X0.0828*%
%ADD97C,0.0572*%
%ADD99C,0.0867*%
%ADD100R,0.0867X0.0867*%
%ADD102O,0.0749X0.1143*%
%ADD104C,0.0552*%
%ADD108C,0.1655*%
%ADD110R,0.058X0.058*%
%ADD112C,0.058*%
%ADD118C,0.134*%
%FSLAX44Y44*%
G04*
G70*
G90*
G75*
G01*
%LNBotMask*%
%LPD*%
D118*
X5065Y30565D3*
Y25565D3*
D52*
X22317Y32441D3*
Y23689D3*
X8565D3*
Y32440D3*
D112*
X10315Y6315D3*
D110*
Y5315D3*
D53*
X5565Y35565D3*
Y5815D3*
X43565D3*
Y35565D3*
D108*
X37065Y35815D3*
X27065D3*
D39*
X5065Y20815D3*
D40*
Y19815D3*
Y18815D3*
Y17815D3*
Y16815D3*
G36*
X12172Y34057D2*
X11958D1*
X11807Y34208D1*
Y34422D1*
X11958Y34573D1*
X12172D1*
X12323Y34422D1*
Y34208D1*
X12172Y34057D1*
G37*
D104*
X11750Y34787D3*
X11435Y34315D3*
X11120Y34787D3*
X10805Y34315D3*
D102*
X12872Y36303D3*
X9998D3*
D39*
X15065Y35565D3*
D40*
X16065D3*
X17065D3*
X18065D3*
X19065D3*
X20065D3*
D100*
X43315Y33065D3*
D99*
Y31096D3*
D97*
X21065Y9815D3*
X21852D3*
X22640D3*
X23427D3*
X24215D3*
X25002D3*
X25789D3*
X26577D3*
D57*
X8644Y17846D3*
Y16665D3*
Y15484D3*
Y14303D3*
D54*
X11026Y21311D3*
X36616D3*
X11026Y8280D3*
X36616D3*
D95*
X31065Y34377D3*
D94*
X32065D3*
X33065D3*
D92*
X44065Y15815D3*
D90*
X39065D3*
D92*
X44065Y17815D3*
D90*
X39065D3*
D92*
X44065Y19815D3*
D90*
X39065D3*
D92*
X44065Y21815D3*
D90*
X39065D3*
D92*
X44065Y23815D3*
D90*
X39065D3*
D92*
X44065Y25815D3*
D90*
X39065D3*
D92*
X44065Y27815D3*
D90*
X39065D3*
D92*
X37565Y24565D3*
D90*
X32565D3*
D92*
X37565Y26565D3*
D90*
X32565D3*
D92*
X37565Y28565D3*
D90*
X32565D3*
D88*
X7565Y7815D3*
D86*
Y9665D3*
Y11516D3*
D16*
X40565Y8815D3*
X41549D3*
X42534D3*
D83*
X38951Y11768D3*
X44148D3*
D32*
X12565Y7315D3*
D33*
Y5543D3*
X15124D3*
Y7315D3*
D32*
X32565D3*
D33*
Y5543D3*
X35124D3*
Y7315D3*
D32*
X20565D3*
D33*
Y5543D3*
X23124D3*
Y7315D3*
D32*
X28565D3*
D33*
Y5543D3*
X31124D3*
Y7315D3*
D32*
X16565D3*
D33*
Y5543D3*
X19124D3*
Y7315D3*
D32*
X39315Y6815D3*
D33*
Y5043D3*
X41874D3*
Y6815D3*
D32*
X24565Y7315D3*
D33*
Y5543D3*
X27124D3*
Y7315D3*
M02*
