G04 DipTrace 2.3.1.0*
%INcurrent-drain.gbo*%
%MOIN*%
%ADD10C,0.0098*%
%ADD120C,0.0077*%
%ADD122C,0.0185*%
%FSLAX44Y44*%
G04*
G70*
G90*
G75*
G01*
%LNBotSilk*%
%LPD*%
X24498Y33691D2*
D10*
X4301D1*
Y22439D1*
X24498D1*
Y33691D1*
X14704Y34423D2*
D120*
Y33921D1*
X14489D1*
X14417Y33945D1*
X14393Y33969D1*
X14369Y34016D1*
Y34088D1*
X14393Y34136D1*
X14417Y34160D1*
X14489Y34184D1*
X14417Y34208D1*
X14393Y34232D1*
X14369Y34280D1*
Y34328D1*
X14393Y34375D1*
X14417Y34399D1*
X14489Y34423D1*
X14704D1*
Y34184D2*
X14489D1*
X14215Y34327D2*
X14167Y34351D1*
X14095Y34423D1*
Y33921D1*
X40031Y14589D2*
D122*
X40088Y14703D1*
X40204Y14819D1*
X40318Y14876D1*
X40547D1*
X40663Y14819D1*
X40777Y14703D1*
X40835Y14589D1*
X40892Y14417D1*
Y14129D1*
X40835Y13958D1*
X40777Y13842D1*
X40663Y13728D1*
X40547Y13670D1*
X40318D1*
X40204Y13728D1*
X40088Y13842D1*
X40031Y13958D1*
X39661Y14474D2*
Y13899D1*
X39604Y13728D1*
X39488Y13670D1*
X39316D1*
X39202Y13728D1*
X39029Y13899D1*
Y14474D2*
Y13670D1*
X38659Y14474D2*
Y13670D1*
Y14129D2*
X38600Y14301D1*
X38486Y14417D1*
X38371Y14474D1*
X38198D1*
X37828D2*
Y13670D1*
Y14129D2*
X37770Y14301D1*
X37655Y14417D1*
X37540Y14474D1*
X37368D1*
X36997Y14129D2*
X36309D1*
Y14244D1*
X36366Y14360D1*
X36423Y14417D1*
X36538Y14474D1*
X36711D1*
X36825Y14417D1*
X36940Y14301D1*
X36997Y14129D1*
Y14015D1*
X36940Y13842D1*
X36825Y13728D1*
X36711Y13670D1*
X36538D1*
X36423Y13728D1*
X36309Y13842D1*
X35938Y14474D2*
Y13670D1*
Y14244D2*
X35766Y14417D1*
X35650Y14474D1*
X35479D1*
X35364Y14417D1*
X35307Y14244D1*
Y13670D1*
X34764Y14876D2*
Y13899D1*
X34707Y13728D1*
X34591Y13670D1*
X34477D1*
X34936Y14474D2*
X34534D1*
X32940Y14876D2*
Y13670D1*
X32252D1*
X31595Y14474D2*
X31709Y14417D1*
X31824Y14301D1*
X31881Y14129D1*
Y14015D1*
X31824Y13842D1*
X31709Y13728D1*
X31595Y13670D1*
X31422D1*
X31307Y13728D1*
X31193Y13842D1*
X31134Y14015D1*
Y14129D1*
X31193Y14301D1*
X31307Y14417D1*
X31422Y14474D1*
X31595D1*
X30075D2*
Y13670D1*
Y14301D2*
X30190Y14417D1*
X30305Y14474D1*
X30476D1*
X30591Y14417D1*
X30706Y14301D1*
X30764Y14129D1*
Y14015D1*
X30706Y13842D1*
X30591Y13728D1*
X30476Y13670D1*
X30305D1*
X30190Y13728D1*
X30075Y13842D1*
X29016Y14876D2*
Y13670D1*
Y14301D2*
X29131Y14417D1*
X29246Y14474D1*
X29418D1*
X29532Y14417D1*
X29648Y14301D1*
X29705Y14129D1*
Y14015D1*
X29648Y13842D1*
X29532Y13728D1*
X29418Y13670D1*
X29246D1*
X29131Y13728D1*
X29016Y13842D1*
X27480Y14301D2*
X26964D1*
X26791Y14360D1*
X26733Y14417D1*
X26676Y14531D1*
Y14646D1*
X26733Y14760D1*
X26791Y14819D1*
X26964Y14876D1*
X27480D1*
Y13670D1*
X27078Y14301D2*
X26676Y13670D1*
X25560Y14876D2*
X26305D1*
Y13670D1*
X25560D1*
X26305Y14301D2*
X25846D1*
X25189Y14876D2*
X24730Y13670D1*
X24271Y14876D1*
X21815Y13670D2*
X22275Y14876D1*
X22734Y13670D1*
X22562Y14072D2*
X21987D1*
X36873Y11045D2*
Y12251D1*
X37331Y11045D1*
X37790Y12251D1*
Y11045D1*
X35814Y11849D2*
Y11045D1*
Y11676D2*
X35928Y11792D1*
X36043Y11849D1*
X36214D1*
X36330Y11792D1*
X36444Y11676D1*
X36502Y11504D1*
Y11390D1*
X36444Y11217D1*
X36330Y11103D1*
X36214Y11045D1*
X36043D1*
X35928Y11103D1*
X35814Y11217D1*
X35271Y12251D2*
Y11274D1*
X35214Y11103D1*
X35098Y11045D1*
X34984D1*
X35443Y11849D2*
X35041D1*
X34441Y12251D2*
Y11274D1*
X34384Y11103D1*
X34269Y11045D1*
X34155D1*
X34613Y11849D2*
X34212D1*
X33784Y12251D2*
Y11045D1*
Y11619D2*
X33612Y11792D1*
X33496Y11849D1*
X33324D1*
X33210Y11792D1*
X33153Y11619D1*
Y11045D1*
X32782Y11504D2*
X32094D1*
Y11619D1*
X32151Y11735D1*
X32208Y11792D1*
X32323Y11849D1*
X32496D1*
X32610Y11792D1*
X32725Y11676D1*
X32782Y11504D1*
Y11390D1*
X32725Y11217D1*
X32610Y11103D1*
X32496Y11045D1*
X32323D1*
X32208Y11103D1*
X32094Y11217D1*
X31723Y11849D2*
X31494Y11045D1*
X31264Y11849D1*
X31035Y11045D1*
X30805Y11849D1*
X29268Y11676D2*
X28752D1*
X28580Y11735D1*
X28521Y11792D1*
X28464Y11906D1*
Y12021D1*
X28521Y12135D1*
X28580Y12194D1*
X28752Y12251D1*
X29268D1*
Y11045D1*
X28866Y11676D2*
X28464Y11045D1*
X28037Y11160D2*
X28094Y11102D1*
X28037Y11045D1*
X27978Y11102D1*
X28037Y11160D1*
X26441Y12251D2*
X26154Y11045D1*
X25867Y12251D1*
X25581Y11045D1*
X25293Y12251D1*
X24922D2*
X24865Y12194D1*
X24807Y12251D1*
X24865Y12309D1*
X24922Y12251D1*
X24865Y11849D2*
Y11045D1*
X24436Y12251D2*
Y11045D1*
X23434Y11676D2*
X23491Y11792D1*
X23664Y11849D1*
X23836D1*
X24009Y11792D1*
X24066Y11676D1*
X24009Y11562D1*
X23893Y11504D1*
X23607Y11447D1*
X23491Y11390D1*
X23434Y11274D1*
Y11217D1*
X23491Y11103D1*
X23664Y11045D1*
X23836D1*
X24009Y11103D1*
X24066Y11217D1*
X22777Y11849D2*
X22891Y11792D1*
X23007Y11676D1*
X23064Y11504D1*
Y11390D1*
X23007Y11217D1*
X22891Y11103D1*
X22777Y11045D1*
X22605D1*
X22489Y11103D1*
X22375Y11217D1*
X22317Y11390D1*
Y11504D1*
X22375Y11676D1*
X22489Y11792D1*
X22605Y11849D1*
X22777D1*
X21946D2*
Y11045D1*
Y11619D2*
X21774Y11792D1*
X21659Y11849D1*
X21487D1*
X21372Y11792D1*
X21315Y11619D1*
Y11045D1*
M02*
