G04 DipTrace 2.3.1.0*
%INcurrent-drain.gbl*%
%MOIN*%
%ADD13C,0.013*%
%ADD14C,0.06*%
%ADD15C,0.1*%
%ADD16C,0.0787*%
%ADD17C,0.0748*%
%ADD19C,0.126*%
%ADD22C,0.05*%
%ADD23R,0.05X0.05*%
%ADD24C,0.1575*%
%ADD25R,0.0591X0.0591*%
%ADD26C,0.0591*%
%ADD27C,0.0472*%
%ADD28O,0.0669X0.1063*%
%ADD29R,0.0787X0.0787*%
%ADD30C,0.0492*%
%ADD31C,0.0886*%
%ADD32R,0.0748X0.0748*%
%ADD33C,0.0748*%
%ADD34C,0.06*%
%ADD35R,0.122X0.122*%
%ADD36C,0.122*%
%ADD37C,0.0709*%
%ADD38C,0.12*%
%ADD39R,0.0669X0.0669*%
%ADD40C,0.0669*%
%ADD50C,0.04*%
%FSLAX44Y44*%
G04*
G70*
G90*
G75*
G01*
%LNBottom*%
%LPD*%
X28408Y19747D2*
D13*
Y25082D1*
X28107Y25383D1*
Y31827D1*
X30089Y33809D1*
X30496D1*
X31065Y34377D1*
X25397Y19747D2*
Y23707D1*
X10267Y24345D2*
Y34709D1*
X10999Y35440D1*
X14190D1*
X14690Y34940D1*
X15440D1*
X15565Y35065D1*
X15555Y36537D1*
X15815Y36797D1*
X29829D1*
X30089Y36537D1*
Y33809D1*
X19229Y14678D2*
X19364Y14813D1*
Y26730D1*
X20938Y13583D2*
Y26415D1*
X44065Y15815D2*
X41549Y13299D1*
Y8815D1*
X23427Y9815D2*
X25354Y7888D1*
Y6333D1*
X24565Y5543D1*
X37565Y24565D2*
X36455Y25675D1*
X30022D1*
X30002Y25695D1*
X20065Y35565D2*
Y34692D1*
X18063Y32690D1*
X11515Y23815D2*
Y27136D1*
X23124Y5543D2*
X24565D1*
X41874Y5043D2*
X39315D1*
X41549Y8815D2*
Y8108D1*
X41345Y7904D1*
Y5573D1*
X41874Y5043D1*
X24565Y5543D2*
X27124D1*
X30002Y25695D2*
Y23898D1*
X29607Y23503D1*
X11515Y27136D2*
X10805Y27846D1*
Y34315D1*
X8063Y29218D2*
X6669Y27824D1*
Y21523D1*
X18519Y28779D2*
X16980D1*
X6669Y21523D2*
Y19815D1*
X6075D1*
X5065D1*
X23558Y17425D2*
Y20537D1*
X16315Y22392D2*
Y17425D1*
X8644Y14303D2*
X6929Y16018D1*
Y19815D1*
X6669D1*
X23558Y20537D2*
Y20932D1*
X23693Y21067D1*
Y24900D1*
X22028Y26565D1*
X9998Y36303D2*
X12872D1*
X26013Y32294D2*
Y28723D1*
X16234Y30859D2*
X14776D1*
X14516Y31119D1*
Y33689D1*
X14776Y33948D1*
X17295D1*
X17555Y34208D1*
Y36055D1*
X26013Y28723D2*
Y17501D1*
X25789Y17278D1*
Y9815D1*
X21075Y30168D2*
X19669D1*
X19409Y30428D1*
Y31389D1*
X19149Y31649D1*
X15315D1*
X25002Y9815D2*
Y28307D1*
X24742Y28567D1*
X24174D1*
X21626D1*
X21075Y29118D1*
X20065Y30859D2*
X23827D1*
X25916Y32948D1*
X26317D1*
X26577Y32689D1*
Y9815D1*
X10440Y13440D2*
Y16190D1*
X11190Y16940D1*
Y17940D2*
Y19190D1*
X9440Y20940D1*
Y21940D1*
X10940Y23440D1*
Y26190D1*
X9690Y25940D2*
Y29690D1*
X13440Y28911D2*
Y17819D1*
X13180Y17560D1*
X10708D1*
X9524Y18744D1*
X8159D1*
X7899Y18484D1*
Y17212D1*
X12910Y29285D2*
Y18484D1*
X12063Y28688D2*
Y23260D1*
X12106Y23217D1*
Y17954D1*
X29502Y24154D2*
Y25830D1*
X29762Y26090D1*
X30482D1*
X30502Y26070D1*
X33760D1*
X30502D2*
D3*
X18834Y26371D2*
Y18349D1*
X24348Y20142D2*
Y27989D1*
X18779D1*
X25565Y30698D2*
Y29773D1*
X25305Y29513D1*
X16845D1*
X16585Y29253D1*
Y26427D1*
X16530Y26371D1*
X25305Y29513D2*
X25565Y29253D1*
Y26217D1*
X16530Y26371D2*
D3*
X43315Y33065D2*
D16*
X42421D1*
D15*
X32065D1*
Y33503D1*
D17*
Y34377D1*
X22903Y16895D2*
D13*
Y21846D1*
X14351Y24815D2*
Y16895D1*
X15400Y25210D2*
Y29513D1*
X15660Y29773D1*
X24763D1*
Y29908D1*
X27367Y24091D2*
Y33557D1*
X27107Y33817D1*
X21442D1*
X19669Y32044D1*
X16565D1*
X28013Y8325D2*
Y24838D1*
X8063Y26005D2*
X7064Y25006D1*
Y20210D1*
X7565Y9665D2*
X4326Y12905D1*
Y21818D1*
X5065Y22558D1*
Y25565D1*
X20678Y27045D2*
X20543Y26910D1*
Y8364D1*
X20803Y8104D1*
X23776D1*
X24565Y7315D1*
X17770Y27161D2*
Y8104D1*
X18030Y7845D1*
X21741D1*
X22000Y7585D1*
Y5095D1*
X22260Y4835D1*
X27394D1*
X27654Y5095D1*
Y6404D1*
X28565Y7315D1*
X23953Y12719D2*
Y27418D1*
X23693Y27678D1*
X20761D1*
X20678Y27595D1*
X32565Y12719D2*
Y7315D1*
X20678Y27595D2*
D3*
X17375Y6970D2*
Y27556D1*
X17770Y27951D2*
X17184D1*
X16924Y27691D1*
Y8204D1*
X16565Y7845D1*
Y7315D1*
X18204Y30859D2*
X17377Y30033D1*
X15265D1*
X15006Y29773D1*
Y8493D1*
X15654Y7845D1*
Y6835D1*
X15913Y6575D1*
X19825D1*
X20565Y7315D1*
X18754Y31254D2*
X17419D1*
X17159Y30995D1*
Y30552D1*
X16899Y30293D1*
X15006D1*
X14746Y30033D1*
Y9496D1*
X12565Y7315D1*
X13861Y26675D2*
Y30472D1*
X11435Y32899D1*
Y34315D1*
X15913Y15740D2*
Y22648D1*
X16190Y22925D1*
Y25625D1*
X16055Y25760D1*
Y27681D1*
X16190Y27816D1*
X16764Y30859D2*
D3*
X12065Y34315D2*
D3*
X16764Y30859D2*
Y31054D1*
X16564Y31254D1*
X15036D1*
X14776Y31514D1*
Y33429D1*
X15036Y33689D1*
X18295D1*
X18555Y33948D1*
Y36190D1*
X18295Y36450D1*
X16815D1*
X16555Y36190D1*
Y34738D1*
X16295Y34478D1*
X12181D1*
Y34315D1*
X12065D1*
X5950Y17815D2*
X5065D1*
X6345Y18879D2*
Y17075D1*
X6085Y16815D1*
X5065D1*
X15795Y23182D2*
Y28211D1*
X16190Y28606D1*
X13956Y23182D2*
Y25869D1*
X14256Y26169D1*
Y33948D1*
X14516Y34208D1*
X16805D1*
X17065Y34468D1*
Y35565D1*
X28502Y26217D2*
X29095Y25625D1*
Y4835D1*
X28835Y4576D1*
X19913D1*
X19654Y4835D1*
Y6055D1*
X19394Y6315D1*
X10315D1*
X20149Y25817D2*
Y15345D1*
X26972Y25823D2*
Y15345D1*
X20149D2*
Y13888D1*
X19889Y13628D1*
X18424D1*
X18165Y13888D1*
Y26371D1*
D50*
X10440Y13440D3*
X11190Y16940D3*
Y17940D3*
X10940Y26190D3*
X9690Y25940D3*
Y29690D3*
X25397Y23707D3*
Y19747D3*
X28408D3*
X10267Y24345D3*
X19364Y26730D3*
X19229Y14678D3*
X20938Y26415D3*
Y13583D3*
X18063Y32690D3*
X11515Y23815D3*
X30002Y25695D3*
X29607Y23503D3*
X11515Y27136D3*
X16980Y28779D3*
X18519D3*
X22028Y26565D3*
X23558Y17425D3*
X16315D3*
Y22392D3*
X6669Y21523D3*
X23558Y20537D3*
X8063Y29218D3*
X26013Y32294D3*
X17555Y36055D3*
X26013Y28723D3*
X16234Y30859D3*
X15315Y31649D3*
X21075Y30168D3*
Y29118D3*
X24174Y28567D3*
X20065Y30859D3*
X7899Y17212D3*
X13440Y28911D3*
X12910Y18484D3*
Y29285D3*
X12106Y17954D3*
X12063Y28688D3*
X33760Y26070D3*
X29502Y24154D3*
X30502Y26070D3*
X18834Y18349D3*
Y26371D3*
X18779Y27989D3*
X24348Y20142D3*
Y27989D3*
X16530Y26371D3*
X25565Y30698D3*
Y26217D3*
X22903Y21846D3*
Y16895D3*
X14351D3*
Y24815D3*
X24763Y29908D3*
X15400Y25210D3*
X16565Y32044D3*
X27367Y24091D3*
X28013Y24838D3*
Y8325D3*
X7064Y20210D3*
X8063Y26005D3*
X20678Y27045D3*
X17770Y27161D3*
X20678Y27595D3*
X23953Y12719D3*
X32565D3*
X17375Y27556D3*
Y6970D3*
X17770Y27951D3*
X18204Y30859D3*
X18754Y31254D3*
X13861Y26675D3*
X16190Y27816D3*
X15913Y15740D3*
X16764Y30859D3*
X5950Y17815D3*
X6345Y18879D3*
X16190Y28606D3*
X15795Y23182D3*
X13956D3*
X28502Y26217D3*
X18165Y26371D3*
X20149Y15345D3*
X26972D3*
X20149Y25817D3*
X26972Y25823D3*
D19*
X5065Y30565D3*
Y25565D3*
D22*
X10315Y6315D3*
D23*
Y5315D3*
D24*
X37065Y35815D3*
X27065D3*
D25*
X5065Y20815D3*
D26*
Y19815D3*
Y18815D3*
Y17815D3*
Y16815D3*
G36*
X12155Y34097D2*
X11975D1*
X11847Y34225D1*
Y34405D1*
X11975Y34533D1*
X12155D1*
X12283Y34405D1*
Y34225D1*
X12155Y34097D1*
G37*
D27*
X11750Y34787D3*
X11435Y34315D3*
X11120Y34787D3*
X10805Y34315D3*
D28*
X12872Y36303D3*
X9998D3*
D25*
X15065Y35565D3*
D26*
X16065D3*
X17065D3*
X18065D3*
X19065D3*
X20065D3*
D29*
X43315Y33065D3*
D16*
Y31096D3*
D30*
X21065Y9815D3*
X21852D3*
X22640D3*
X23427D3*
X24215D3*
X25002D3*
X25789D3*
X26577D3*
D31*
X8644Y17846D3*
Y16665D3*
Y15484D3*
Y14303D3*
D32*
X31065Y34377D3*
D33*
X32065D3*
X33065D3*
D14*
X44065Y15815D3*
D34*
X39065D3*
D14*
X44065Y17815D3*
D34*
X39065D3*
D14*
X44065Y19815D3*
D34*
X39065D3*
D14*
X44065Y21815D3*
D34*
X39065D3*
D14*
X44065Y23815D3*
D34*
X39065D3*
D14*
X44065Y25815D3*
D34*
X39065D3*
D14*
X44065Y27815D3*
D34*
X39065D3*
D14*
X37565Y24565D3*
D34*
X32565D3*
D14*
X37565Y26565D3*
D34*
X32565D3*
D14*
X37565Y28565D3*
D34*
X32565D3*
D35*
X7565Y7815D3*
D36*
Y9665D3*
Y11516D3*
D37*
X40565Y8815D3*
X41549D3*
X42534D3*
D38*
X38951Y11768D3*
X44148D3*
D39*
X12565Y7315D3*
D40*
Y5543D3*
X15124D3*
Y7315D3*
D39*
X32565D3*
D40*
Y5543D3*
X35124D3*
Y7315D3*
D39*
X20565D3*
D40*
Y5543D3*
X23124D3*
Y7315D3*
D39*
X28565D3*
D40*
Y5543D3*
X31124D3*
Y7315D3*
D39*
X16565D3*
D40*
Y5543D3*
X19124D3*
Y7315D3*
D39*
X39315Y6815D3*
D40*
Y5043D3*
X41874D3*
Y6815D3*
D39*
X24565Y7315D3*
D40*
Y5543D3*
X27124D3*
Y7315D3*
M02*
