G04 DipTrace 2.3.1.0*
%INcurrent-drain.gts*%
%MOIN*%
%ADD16C,0.0787*%
%ADD32R,0.0748X0.0748*%
%ADD33C,0.0748*%
%ADD39R,0.0669X0.0669*%
%ADD40C,0.0669*%
%ADD52C,0.1299*%
%ADD53C,0.116*%
%ADD54C,0.0984*%
%ADD57C,0.0965*%
%ADD69R,0.0316X0.0867*%
%ADD71R,0.0257X0.0671*%
%ADD73R,0.0671X0.0257*%
%ADD75R,0.0926X0.136*%
%ADD77R,0.0926X0.0454*%
%ADD79R,0.0513X0.0316*%
%ADD81R,0.0493X0.0336*%
%ADD83C,0.128*%
%ADD86C,0.13*%
%ADD88R,0.13X0.13*%
%ADD90C,0.068*%
%ADD92C,0.068*%
%ADD94C,0.0828*%
%ADD95R,0.0828X0.0828*%
%ADD97C,0.0572*%
%ADD99C,0.0867*%
%ADD100R,0.0867X0.0867*%
%ADD102O,0.0749X0.1143*%
%ADD104C,0.0552*%
%ADD108C,0.1655*%
%ADD110R,0.058X0.058*%
%ADD112C,0.058*%
%ADD114R,0.0671X0.0592*%
%ADD116R,0.0592X0.0671*%
%ADD118C,0.134*%
%FSLAX44Y44*%
G04*
G70*
G90*
G75*
G01*
%LNTopMask*%
%LPD*%
D118*
X5065Y30565D3*
Y25565D3*
D52*
X22317Y32441D3*
Y23689D3*
X8565D3*
Y32440D3*
D116*
X21065Y8815D3*
X21813D3*
X7315Y30315D3*
X8063D3*
X7315Y25315D3*
X8063D3*
X23563Y8815D3*
X22815D3*
X11315Y30315D3*
X12063D3*
X11315Y25315D3*
X12063D3*
D114*
X14315Y28065D3*
Y27317D3*
X21565Y27565D3*
Y28313D3*
D116*
X17315Y32065D3*
X18063D3*
X16315Y23815D3*
X15567D3*
D112*
X10315Y6315D3*
D110*
Y5315D3*
D53*
X5565Y35565D3*
Y5815D3*
X43565D3*
Y35565D3*
D108*
X37065Y35815D3*
X27065D3*
D39*
X5065Y20815D3*
D40*
Y19815D3*
Y18815D3*
Y17815D3*
Y16815D3*
G36*
X12172Y34057D2*
X11958D1*
X11807Y34208D1*
Y34422D1*
X11958Y34573D1*
X12172D1*
X12323Y34422D1*
Y34208D1*
X12172Y34057D1*
G37*
D104*
X11750Y34787D3*
X11435Y34315D3*
X11120Y34787D3*
X10805Y34315D3*
D102*
X12872Y36303D3*
X9998D3*
D39*
X15065Y35565D3*
D40*
X16065D3*
X17065D3*
X18065D3*
X19065D3*
X20065D3*
D100*
X43315Y33065D3*
D99*
Y31096D3*
D97*
X21065Y9815D3*
X21852D3*
X22640D3*
X23427D3*
X24215D3*
X25002D3*
X25789D3*
X26577D3*
D57*
X8644Y17846D3*
Y16665D3*
Y15484D3*
Y14303D3*
D54*
X11026Y21311D3*
X36616D3*
X11026Y8280D3*
X36616D3*
D95*
X31065Y34377D3*
D94*
X32065D3*
X33065D3*
D116*
X6565Y17815D3*
X7313D3*
X6565Y16315D3*
X7313D3*
X6565Y14815D3*
X7313D3*
D114*
X5315Y10565D3*
Y11313D3*
X5316Y8689D3*
Y9437D3*
X15940Y31565D3*
Y32313D3*
X14065Y31565D3*
Y32313D3*
X38939Y8689D3*
Y7941D3*
X44189Y8689D3*
Y7941D3*
D116*
X19440Y23815D3*
X18692D3*
X28752Y22878D3*
X29500D3*
X28752Y28628D3*
X29500D3*
X31002Y22878D3*
X31750D3*
Y28628D3*
X31002D3*
X40065Y29815D3*
X40813D3*
X38065D3*
X38813D3*
D92*
X44065Y15815D3*
D90*
X39065D3*
D92*
X44065Y17815D3*
D90*
X39065D3*
D92*
X44065Y19815D3*
D90*
X39065D3*
D92*
X44065Y21815D3*
D90*
X39065D3*
D92*
X44065Y23815D3*
D90*
X39065D3*
D92*
X44065Y25815D3*
D90*
X39065D3*
D92*
X44065Y27815D3*
D90*
X39065D3*
D92*
X37565Y24565D3*
D90*
X32565D3*
D92*
X37565Y26565D3*
D90*
X32565D3*
D92*
X37565Y28565D3*
D90*
X32565D3*
D116*
X7565Y5315D3*
X8313D3*
D88*
X7565Y7815D3*
D86*
Y9665D3*
Y11516D3*
D16*
X40565Y8815D3*
X41549D3*
X42534D3*
D83*
X38951Y11768D3*
X44148D3*
D32*
X12565Y7315D3*
D33*
Y5543D3*
X15124D3*
Y7315D3*
D32*
X32565D3*
D33*
Y5543D3*
X35124D3*
Y7315D3*
D32*
X20565D3*
D33*
Y5543D3*
X23124D3*
Y7315D3*
D32*
X28565D3*
D33*
Y5543D3*
X31124D3*
Y7315D3*
D32*
X16565D3*
D33*
Y5543D3*
X19124D3*
Y7315D3*
D32*
X39315Y6815D3*
D33*
Y5043D3*
X41874D3*
Y6815D3*
D32*
X24565Y7315D3*
D33*
Y5543D3*
X27124D3*
Y7315D3*
D81*
X22565Y26565D3*
Y25817D3*
X23471Y26191D3*
D79*
X22565Y29315D3*
Y28941D3*
Y28567D3*
X23628D3*
Y28941D3*
Y29315D3*
D77*
X6565Y28565D3*
Y27659D3*
Y26754D3*
D75*
X8848Y27659D3*
D77*
X10565Y28565D3*
Y27659D3*
Y26754D3*
D75*
X12848Y27659D3*
D73*
X15565Y29565D3*
Y29250D3*
Y28935D3*
Y28620D3*
Y28305D3*
Y27990D3*
Y27675D3*
Y27360D3*
Y27045D3*
Y26730D3*
Y26415D3*
D71*
X16234Y25746D3*
X16549D3*
X16864D3*
X17179D3*
X17494D3*
X17809D3*
X18124D3*
X18439D3*
X18754D3*
X19069D3*
X19384D3*
D73*
X20053Y26415D3*
Y26730D3*
Y27045D3*
Y27360D3*
Y27675D3*
Y27990D3*
Y28305D3*
Y28620D3*
Y28935D3*
Y29250D3*
Y29565D3*
D71*
X19384Y30234D3*
X19069D3*
X18754D3*
X18439D3*
X18124D3*
X17809D3*
X17494D3*
X17179D3*
X16864D3*
X16549D3*
X16234D3*
D69*
X28502Y24878D3*
X29002D3*
X29502D3*
X30002D3*
X30502D3*
X31002D3*
X31502D3*
Y27004D3*
X31002D3*
X30502D3*
X30002D3*
X29502D3*
X29002D3*
X28502D3*
X24565Y24815D3*
X25065D3*
X25565D3*
X26065D3*
X26565D3*
X27065D3*
X27565D3*
Y26941D3*
X27065D3*
X26565D3*
X26065D3*
X25565D3*
X25065D3*
X24565D3*
M02*
