G04 DipTrace 2.3.1.0*
%INcurrent-drain.gtl*%
%MOIN*%
%ADD13C,0.013*%
%ADD14C,0.06*%
%ADD15C,0.1*%
%ADD16C,0.0787*%
%ADD17C,0.0748*%
%ADD18C,0.0512*%
%ADD19C,0.126*%
%ADD20R,0.0512X0.0591*%
%ADD21R,0.0591X0.0512*%
%ADD22C,0.05*%
%ADD23R,0.05X0.05*%
%ADD24C,0.1575*%
%ADD25R,0.0591X0.0591*%
%ADD26C,0.0591*%
%ADD27C,0.0472*%
%ADD28O,0.0669X0.1063*%
%ADD29R,0.0787X0.0787*%
%ADD30C,0.0492*%
%ADD31C,0.0886*%
%ADD32R,0.0748X0.0748*%
%ADD33C,0.0748*%
%ADD34C,0.06*%
%ADD35R,0.122X0.122*%
%ADD36C,0.122*%
%ADD37C,0.0709*%
%ADD38C,0.12*%
%ADD39R,0.0669X0.0669*%
%ADD40C,0.0669*%
%ADD42R,0.0413X0.0256*%
%ADD43R,0.0433X0.0236*%
%ADD44R,0.0846X0.0374*%
%ADD45R,0.0846X0.128*%
%ADD47R,0.0591X0.0177*%
%ADD48R,0.0177X0.0591*%
%ADD49R,0.0236X0.0787*%
%ADD50C,0.04*%
%FSLAX44Y44*%
G04*
G70*
G90*
G75*
G01*
%LNTop*%
%LPD*%
X25397Y23707D2*
D13*
X24825D1*
X24565Y23967D1*
Y24226D1*
X25065D1*
Y24815D1*
X24565Y24226D2*
Y24815D1*
X28408Y19747D2*
X25397D1*
X10267Y24345D2*
X13378D1*
X13638Y24605D1*
Y25697D1*
X14357Y26415D1*
X15565D1*
X38939Y8689D2*
X40439D1*
X40565Y8815D1*
X19364Y26730D2*
X20053D1*
X38939Y8689D2*
Y10256D1*
X38679Y10516D1*
X23391D1*
X19229Y14678D1*
X44189Y8689D2*
X42659D1*
X42534Y8815D1*
X20938Y26415D2*
X20053D1*
X42534Y8815D2*
Y13323D1*
X42274Y13583D1*
X20938D1*
X23563Y8815D2*
X23427Y8951D1*
Y9815D1*
X21565Y28313D2*
X21557Y28305D1*
X20053D1*
X15567Y23815D2*
X16567Y24815D1*
X16815D1*
X17494Y25494D1*
Y25746D1*
X14315Y28065D2*
X14390Y27990D1*
X15565D1*
X18063Y32065D2*
X17809Y31811D1*
Y30234D1*
X11315Y30315D2*
Y28815D1*
X11065Y28565D1*
X10565D1*
X7315Y30315D2*
Y28940D1*
X6940Y28565D1*
X6565D1*
X28752Y28628D2*
Y28128D1*
X29002Y27878D1*
X29752D1*
X30002Y27628D1*
Y27004D1*
X44065Y15815D2*
D14*
Y16615D1*
D15*
Y27015D1*
D14*
Y27815D1*
X37565Y24565D2*
Y25365D1*
D15*
Y27765D1*
D14*
Y28565D1*
X44065Y27815D2*
Y28615D1*
D15*
Y28815D1*
Y30346D1*
X43947Y30465D1*
D16*
X43315Y31096D1*
X44065Y25815D2*
D15*
Y27815D1*
X37565Y28565D2*
D14*
X37815D1*
D15*
X38065Y28815D1*
X44065D1*
X28752Y28628D2*
D13*
Y30043D1*
X28492Y30303D1*
X22413D1*
X22154Y30043D1*
Y28941D1*
X22565D1*
X20065Y35565D2*
X20720Y34910D1*
Y31997D1*
X22413Y30303D1*
X23124Y5543D2*
X20565D1*
X18063Y32065D2*
Y32690D1*
X14315Y28065D2*
X13726D1*
X13467Y27805D1*
Y26690D1*
X13207Y26430D1*
X12514D1*
Y24740D1*
X11315D1*
Y25315D1*
X27124Y5543D2*
X28565D1*
X12565D2*
X11089Y7020D1*
X8370D1*
Y8689D1*
X5316D1*
X6565Y28565D2*
X5890D1*
Y27396D1*
X6150Y27136D1*
X7987D1*
X8433Y26690D1*
X9241D1*
X9947Y27396D1*
Y28565D1*
X10565D1*
X7315Y30315D2*
X6453D1*
X6203Y30565D1*
X5065D1*
X9947Y27396D2*
Y27136D1*
X11515D1*
X21565Y28313D2*
Y28941D1*
X22154D1*
X15567Y23815D2*
X11515D1*
X38065Y28815D2*
Y29815D1*
X7315Y25315D2*
X6150D1*
X4326Y23491D1*
Y19554D1*
X5065Y18815D1*
X22565Y28941D2*
X22976D1*
Y27764D1*
X23471Y27270D1*
X23730Y27530D1*
X26065D1*
Y26941D1*
X30002Y27004D2*
Y25695D1*
X29607Y23503D2*
X28752D1*
Y22878D1*
X23471Y27270D2*
Y26191D1*
X8370Y7020D2*
X7565Y6215D1*
Y5315D1*
X15124Y5543D2*
X12565D1*
X16565D2*
X15124D1*
X19124D2*
X16565D1*
X20565D2*
X19124D1*
X6150Y27136D2*
X5890D1*
Y25575D1*
X6150Y25315D1*
X7315D2*
X7184D1*
X18063Y32690D2*
Y33294D1*
X11826D1*
X10805Y34315D1*
X35124Y5543D2*
X37014D1*
X37514Y5043D1*
X39315D1*
X32565Y5543D2*
X35124D1*
X31124D2*
X32565D1*
X28565D2*
X31124D1*
X11515Y27136D2*
X12085D1*
Y26859D1*
X12514Y26430D1*
X22154Y28941D2*
D3*
X44065Y25815D2*
Y23815D1*
Y21815D1*
Y19815D1*
Y17815D1*
X37565Y26565D2*
Y28565D1*
X21565Y27565D2*
X21140Y27990D1*
X20053D1*
X18692Y23815D2*
X17809Y24698D1*
Y25746D1*
X16315Y23815D2*
X17809Y25309D1*
Y25746D1*
X17315Y32065D2*
X17494Y31886D1*
Y30234D1*
X8063Y30315D2*
Y28688D1*
X7034Y27659D1*
X6565D1*
X16980Y28779D2*
X16809Y28608D1*
Y27026D1*
X16549Y26766D1*
X16091D1*
X16055Y26730D1*
X15565D1*
X20053Y27990D2*
X19434D1*
Y28519D1*
X19174Y28779D1*
X18519D1*
X23558Y20537D2*
X29742D1*
X30002Y20797D1*
Y24878D1*
X8063Y30315D2*
X8942D1*
X10940Y32313D1*
X14065D1*
X22565Y28567D2*
X22055D1*
Y28085D1*
X22315Y27825D1*
X22565Y27575D1*
Y26565D1*
X21565Y27565D2*
X22055D1*
X22315Y27825D1*
X16315Y17425D2*
X23558D1*
X6669Y21523D2*
X9507D1*
X10375Y22392D1*
X16315D1*
X24215Y9815D2*
X23774Y10256D1*
X19459D1*
X15412Y14303D1*
X8644D1*
X38939Y7941D2*
X37957D1*
X37697Y8201D1*
Y9100D1*
X37437Y9360D1*
X24669D1*
X24215Y9815D1*
X44189Y7941D2*
X40740D1*
X38939D1*
X15940Y32313D2*
Y32764D1*
X17315D1*
Y32065D1*
X14065Y32313D2*
X15940D1*
X22565Y26565D2*
X22028D1*
X16315Y22392D2*
Y23815D1*
X22315Y27825D2*
D3*
X19440Y23815D2*
X18124Y25131D1*
Y25746D1*
X19440Y23815D2*
Y20490D1*
X19180Y20230D1*
X9623D1*
X9038Y20815D1*
X5065D1*
X14315Y27317D2*
X14673Y27675D1*
X15565D1*
X32565Y28565D2*
D14*
Y27765D1*
Y27365D1*
Y26565D1*
Y25765D1*
Y25365D1*
Y24565D1*
X33131Y23999D1*
D15*
X33815Y23315D1*
X38565D1*
D14*
X39065Y23815D1*
Y27815D2*
Y27015D1*
D15*
Y26615D1*
D14*
Y25815D1*
Y23815D1*
Y23015D1*
Y22615D1*
Y21815D1*
Y21015D1*
Y20615D1*
Y19815D1*
Y19015D1*
Y18615D1*
Y17815D1*
Y17015D1*
Y16615D1*
Y15815D1*
X32565Y28565D2*
X33065Y29065D1*
D15*
Y33503D1*
D17*
Y34377D1*
X39065Y27015D2*
D15*
Y16615D1*
D14*
D3*
X32565Y25365D2*
D15*
Y27765D1*
D14*
D3*
X15940Y31565D2*
D13*
X16234Y31271D1*
Y30234D1*
X26013Y28723D2*
X25478D1*
X25239Y28962D1*
X23628D1*
Y28941D1*
X17555Y36055D2*
X22252D1*
X26013Y32294D1*
X14065Y31565D2*
X15565Y30065D1*
Y29565D1*
X21075Y29118D2*
Y30168D1*
X24174Y28567D2*
X23628D1*
X14065Y31565D2*
Y31649D1*
X15315D1*
X20065Y30859D2*
X19384D1*
Y30234D1*
X6565Y14815D2*
Y14565D1*
X7690Y13440D1*
X10440D1*
X11190Y16940D2*
Y17940D1*
X10940Y26190D2*
X9940D1*
X9690Y25940D1*
Y29690D2*
Y30190D1*
X11190Y31690D1*
X12440D1*
X15190Y28940D1*
X15560D1*
X15565Y28935D1*
X7899Y17212D2*
X6825D1*
X6565Y16952D1*
Y16315D1*
X13440Y28911D2*
X14774D1*
X15065Y28620D1*
X15565D1*
X12910Y18484D2*
X6565D1*
Y17815D1*
X12910Y29285D2*
Y28776D1*
X13170Y28516D1*
X14700D1*
X14910Y28305D1*
X15565D1*
X7313Y14815D2*
X7982Y15484D1*
X8644D1*
X7313Y16315D2*
X8293D1*
X8644Y16665D1*
X7313Y17815D2*
X8612D1*
X8644Y17846D1*
X22815Y8815D2*
X22640Y8990D1*
Y9815D1*
X21813Y8815D2*
X21852Y8854D1*
Y9815D1*
X21065Y8815D2*
Y9815D1*
X12063Y30315D2*
Y28688D1*
X11034Y27659D1*
X10565D1*
X12106Y17954D2*
X22226D1*
X22486Y18214D1*
Y20932D1*
X22746Y21192D1*
X25805D1*
X26065Y21451D1*
Y24815D1*
X33760Y26070D2*
Y30305D1*
X34020Y30565D1*
X38553D1*
X38813Y30305D1*
Y29815D1*
X30502Y27004D2*
Y26070D1*
X29502Y24154D2*
Y24878D1*
X38813Y29815D2*
X39264D1*
X40065D1*
X30502Y26070D2*
Y24878D1*
X18834Y18349D2*
X21000D1*
X21260Y18609D1*
Y21192D1*
X21519Y21451D1*
X23693D1*
X23953Y21711D1*
Y25144D1*
X24213Y25404D1*
X26565D1*
Y24815D1*
Y23696D1*
X26825Y23437D1*
X27528D1*
X28121Y24030D1*
X28502D1*
X29002D1*
Y24878D1*
X18834Y26371D2*
D3*
X28502Y24030D2*
Y24878D1*
X18834Y26371D2*
X18754Y26291D1*
Y25746D1*
X31002Y24878D2*
Y25467D1*
X31262Y25726D1*
X31555D1*
X31815Y25467D1*
Y22878D1*
X31750D1*
X31002Y28628D2*
Y27004D1*
X18779Y27989D2*
Y27026D1*
X18519Y26766D1*
X17439D1*
X17179Y26506D1*
Y25746D1*
X31502Y24878D2*
Y24060D1*
X31002Y23560D1*
Y22878D1*
X24348Y27989D2*
X26305D1*
X26565Y27730D1*
Y26941D1*
X24348Y20142D2*
X23163D1*
Y20932D1*
X29240D1*
X29500Y21192D1*
Y22878D1*
X31002D2*
Y20402D1*
X30742Y20142D1*
X24348D1*
X31750Y28628D2*
Y27252D1*
X31502Y27004D1*
X29500Y28628D2*
X29502D1*
X30502Y29628D1*
X31252D1*
X31752Y29128D1*
Y28630D1*
X31750Y28628D1*
X16530Y26371D2*
D3*
X30502Y29628D2*
X29432Y30698D1*
X25565D1*
Y26217D2*
Y26941D1*
X16530Y26371D2*
X16664D1*
X16864Y26171D1*
Y25746D1*
X43315Y33065D2*
D18*
X40813Y30563D1*
Y29815D1*
X22903Y21846D2*
D13*
X23693Y22636D1*
Y25404D1*
X23953Y25663D1*
X24305D1*
X24565Y25923D1*
Y26941D1*
X14351Y16895D2*
X22903D1*
X14351Y24815D2*
X15282Y25746D1*
X16234D1*
X24763Y29908D2*
X27305D1*
X27565Y29648D1*
Y26941D1*
X15400Y25210D2*
X16549D1*
Y25746D1*
X16565Y32044D2*
Y31565D1*
X16919D1*
X17179Y31305D1*
Y30234D1*
X27367Y24091D2*
X27565Y24290D1*
Y24815D1*
X28013Y8325D2*
X16747D1*
X14506Y10565D1*
X5315D1*
X28013Y24838D2*
Y25467D1*
X29242D1*
X29502Y25726D1*
Y27004D1*
X5316Y9437D2*
X5185D1*
X5315Y10565D2*
Y9437D1*
X12063Y25315D2*
Y26192D1*
X11565Y26690D1*
X10629D1*
X10565Y26754D1*
X8063Y25315D2*
Y25805D1*
Y26317D1*
X7690Y26690D1*
X6629D1*
X6565Y26754D1*
X7064Y20210D2*
X5815D1*
X5555Y19950D1*
Y12996D1*
X5315Y12756D1*
Y11313D1*
X10565Y26754D2*
X9726D1*
X8778Y25805D1*
X8063D1*
X5315Y11313D2*
X4825D1*
Y8075D1*
X5085Y7815D1*
X7565D1*
X20678Y27045D2*
X20053D1*
X17770Y27161D2*
X18384Y27775D1*
Y28384D1*
X19174D1*
Y27620D1*
X19434Y27360D1*
X20053D1*
X20678Y27595D2*
X20598Y27675D1*
X20053D1*
X23953Y12719D2*
X32565D1*
X17375Y27556D2*
Y29011D1*
X17115Y29271D1*
X16809D1*
X16549Y29530D1*
Y30234D1*
X17375Y6970D2*
X17559Y6785D1*
X38434D1*
X38464Y6815D1*
X39315D1*
X17770Y27951D2*
X18124Y28305D1*
Y30234D1*
X18204Y30859D2*
X18239D1*
X18439Y30659D1*
Y30234D1*
X18754Y31254D2*
Y30234D1*
X13861Y26675D2*
X14673D1*
X14933Y26935D1*
Y27360D1*
X15565D1*
X16190Y27816D2*
Y27045D1*
X15565D1*
X15913Y15740D2*
X32071D1*
X32750Y15060D1*
X44500D1*
X44760Y15320D1*
Y33939D1*
X44500Y34198D1*
X36741D1*
X34142Y36797D1*
X14980D1*
X13151Y34969D1*
X11931D1*
X11750Y34787D1*
X16764Y30859D2*
X16864Y30759D1*
Y30234D1*
X5950Y17815D2*
Y19274D1*
X19631D1*
X19891Y19534D1*
Y24611D1*
X19631Y24871D1*
X19069D1*
Y25746D1*
X6345Y18879D2*
X20151D1*
X20410Y19139D1*
Y24871D1*
X20151Y25131D1*
X19384D1*
Y25746D1*
X20053Y29565D2*
X20543D1*
Y29807D1*
X20460Y29890D1*
Y34319D1*
X20200Y34579D1*
X17051D1*
X16065Y35565D1*
X16190Y28606D2*
Y29250D1*
X15565D1*
X13956Y23182D2*
X15795D1*
X28502Y26217D2*
Y27004D1*
X8313Y5315D2*
X9485D1*
X10315D1*
X29002Y27004D2*
Y26082D1*
X28742Y25823D1*
X26972D1*
X25065Y26941D2*
Y26082D1*
X25325Y25823D1*
X26972D1*
X18165Y26371D2*
D3*
X26972Y15345D2*
X20149D1*
Y25817D2*
X22565D1*
X27065Y26941D2*
Y29055D1*
X26805Y29315D1*
X23628D1*
X26972Y25823D2*
Y26217D1*
X27065Y26311D1*
Y26941D1*
X26972Y25823D2*
Y25404D1*
X27065D1*
Y24815D1*
X18165Y26371D2*
X18239D1*
X18439Y26171D1*
Y25746D1*
D50*
X10440Y13440D3*
X11190Y16940D3*
Y17940D3*
X10940Y26190D3*
X9690Y25940D3*
Y29690D3*
X25397Y23707D3*
Y19747D3*
X28408D3*
X10267Y24345D3*
X19364Y26730D3*
X19229Y14678D3*
X20938Y26415D3*
Y13583D3*
X18063Y32690D3*
X11515Y23815D3*
X30002Y25695D3*
X29607Y23503D3*
X11515Y27136D3*
X16980Y28779D3*
X18519D3*
X22028Y26565D3*
X23558Y17425D3*
X16315D3*
Y22392D3*
X6669Y21523D3*
X23558Y20537D3*
X8063Y29218D3*
X26013Y32294D3*
X17555Y36055D3*
X26013Y28723D3*
X16234Y30859D3*
X15315Y31649D3*
X21075Y30168D3*
Y29118D3*
X24174Y28567D3*
X20065Y30859D3*
X7899Y17212D3*
X13440Y28911D3*
X12910Y18484D3*
Y29285D3*
X12106Y17954D3*
X12063Y28688D3*
X33760Y26070D3*
X29502Y24154D3*
X30502Y26070D3*
X18834Y18349D3*
Y26371D3*
X18779Y27989D3*
X24348Y20142D3*
Y27989D3*
X16530Y26371D3*
X25565Y30698D3*
Y26217D3*
X22903Y21846D3*
Y16895D3*
X14351D3*
Y24815D3*
X24763Y29908D3*
X15400Y25210D3*
X16565Y32044D3*
X27367Y24091D3*
X28013Y24838D3*
Y8325D3*
X7064Y20210D3*
X8063Y26005D3*
X20678Y27045D3*
X17770Y27161D3*
X20678Y27595D3*
X23953Y12719D3*
X32565D3*
X17375Y27556D3*
Y6970D3*
X17770Y27951D3*
X18204Y30859D3*
X18754Y31254D3*
X13861Y26675D3*
X16190Y27816D3*
X15913Y15740D3*
X16764Y30859D3*
X5950Y17815D3*
X6345Y18879D3*
X16190Y28606D3*
X15795Y23182D3*
X13956D3*
X28502Y26217D3*
X18165Y26371D3*
X20149Y15345D3*
X26972D3*
X20149Y25817D3*
X26972Y25823D3*
D19*
X5065Y30565D3*
Y25565D3*
D20*
X21065Y8815D3*
X21813D3*
X7315Y30315D3*
X8063D3*
X7315Y25315D3*
X8063D3*
X23563Y8815D3*
X22815D3*
X11315Y30315D3*
X12063D3*
X11315Y25315D3*
X12063D3*
D21*
X14315Y28065D3*
Y27317D3*
X21565Y27565D3*
Y28313D3*
D20*
X17315Y32065D3*
X18063D3*
X16315Y23815D3*
X15567D3*
D22*
X10315Y6315D3*
D23*
Y5315D3*
D24*
X37065Y35815D3*
X27065D3*
D25*
X5065Y20815D3*
D26*
Y19815D3*
Y18815D3*
Y17815D3*
Y16815D3*
G36*
X12155Y34097D2*
X11975D1*
X11847Y34225D1*
Y34405D1*
X11975Y34533D1*
X12155D1*
X12283Y34405D1*
Y34225D1*
X12155Y34097D1*
G37*
D27*
X11750Y34787D3*
X11435Y34315D3*
X11120Y34787D3*
X10805Y34315D3*
D28*
X12872Y36303D3*
X9998D3*
D25*
X15065Y35565D3*
D26*
X16065D3*
X17065D3*
X18065D3*
X19065D3*
X20065D3*
D29*
X43315Y33065D3*
D16*
Y31096D3*
D30*
X21065Y9815D3*
X21852D3*
X22640D3*
X23427D3*
X24215D3*
X25002D3*
X25789D3*
X26577D3*
D31*
X8644Y17846D3*
Y16665D3*
Y15484D3*
Y14303D3*
D32*
X31065Y34377D3*
D33*
X32065D3*
X33065D3*
D20*
X6565Y17815D3*
X7313D3*
X6565Y16315D3*
X7313D3*
X6565Y14815D3*
X7313D3*
D21*
X5315Y10565D3*
Y11313D3*
X5316Y8689D3*
Y9437D3*
X15940Y31565D3*
Y32313D3*
X14065Y31565D3*
Y32313D3*
X38939Y8689D3*
Y7941D3*
X44189Y8689D3*
Y7941D3*
D20*
X19440Y23815D3*
X18692D3*
X28752Y22878D3*
X29500D3*
X28752Y28628D3*
X29500D3*
X31002Y22878D3*
X31750D3*
Y28628D3*
X31002D3*
X40065Y29815D3*
X40813D3*
X38065D3*
X38813D3*
D14*
X44065Y15815D3*
D34*
X39065D3*
D14*
X44065Y17815D3*
D34*
X39065D3*
D14*
X44065Y19815D3*
D34*
X39065D3*
D14*
X44065Y21815D3*
D34*
X39065D3*
D14*
X44065Y23815D3*
D34*
X39065D3*
D14*
X44065Y25815D3*
D34*
X39065D3*
D14*
X44065Y27815D3*
D34*
X39065D3*
D14*
X37565Y24565D3*
D34*
X32565D3*
D14*
X37565Y26565D3*
D34*
X32565D3*
D14*
X37565Y28565D3*
D34*
X32565D3*
D20*
X7565Y5315D3*
X8313D3*
D35*
X7565Y7815D3*
D36*
Y9665D3*
Y11516D3*
D37*
X40565Y8815D3*
X41549D3*
X42534D3*
D38*
X38951Y11768D3*
X44148D3*
D39*
X12565Y7315D3*
D40*
Y5543D3*
X15124D3*
Y7315D3*
D39*
X32565D3*
D40*
Y5543D3*
X35124D3*
Y7315D3*
D39*
X20565D3*
D40*
Y5543D3*
X23124D3*
Y7315D3*
D39*
X28565D3*
D40*
Y5543D3*
X31124D3*
Y7315D3*
D39*
X16565D3*
D40*
Y5543D3*
X19124D3*
Y7315D3*
D39*
X39315Y6815D3*
D40*
Y5043D3*
X41874D3*
Y6815D3*
D39*
X24565Y7315D3*
D40*
Y5543D3*
X27124D3*
Y7315D3*
D42*
X22565Y26565D3*
Y25817D3*
X23471Y26191D3*
D43*
X22565Y29315D3*
Y28941D3*
Y28567D3*
X23628D3*
Y28941D3*
Y29315D3*
D44*
X6565Y28565D3*
Y27659D3*
Y26754D3*
D45*
X8848Y27659D3*
D44*
X10565Y28565D3*
Y27659D3*
Y26754D3*
D45*
X12848Y27659D3*
D47*
X15565Y29565D3*
Y29250D3*
Y28935D3*
Y28620D3*
Y28305D3*
Y27990D3*
Y27675D3*
Y27360D3*
Y27045D3*
Y26730D3*
Y26415D3*
D48*
X16234Y25746D3*
X16549D3*
X16864D3*
X17179D3*
X17494D3*
X17809D3*
X18124D3*
X18439D3*
X18754D3*
X19069D3*
X19384D3*
D47*
X20053Y26415D3*
Y26730D3*
Y27045D3*
Y27360D3*
Y27675D3*
Y27990D3*
Y28305D3*
Y28620D3*
Y28935D3*
Y29250D3*
Y29565D3*
D48*
X19384Y30234D3*
X19069D3*
X18754D3*
X18439D3*
X18124D3*
X17809D3*
X17494D3*
X17179D3*
X16864D3*
X16549D3*
X16234D3*
D49*
X28502Y24878D3*
X29002D3*
X29502D3*
X30002D3*
X30502D3*
X31002D3*
X31502D3*
Y27004D3*
X31002D3*
X30502D3*
X30002D3*
X29502D3*
X29002D3*
X28502D3*
X24565Y24815D3*
X25065D3*
X25565D3*
X26065D3*
X26565D3*
X27065D3*
X27565D3*
Y26941D3*
X27065D3*
X26565D3*
X26065D3*
X25565D3*
X25065D3*
X24565D3*
M02*
